<svg width="0" height="0" class="hidden">
  <symbol id="logo" xmlns="http://www.w3.org/2000/svg" enable-background="new 0 0 23.376 23.376" viewBox="0 0 23.376 23.376">
      <path d="M15.554 8.058c0 2.132-1.731 3.861-3.868 3.861-2.132 0-3.857-1.729-3.857-3.861s1.726-3.865 3.857-3.865c2.137-.001 3.868 1.733 3.868 3.865zM16.295 12.944l2.516-.479-.608-2.259 1.911-1.508-1.694-1.807.917-2.461-2.566-.696-.476-2.604-2.565.975-1.867-2.105-1.74 1.955-2.646-1.035-.566 2.587-2.606.705.827 2.233-1.87 1.807 1.87 1.608-.65 2.324 2.43.583.23.943-2.922 8.211 3.215-.833 2.432 2.288 1.82-6.589 2.002 6.589 2.169-2.086 3.559.148-3.303-7.767.181-.727zm-9.424-4.886c0-2.662 2.16-4.821 4.815-4.821 2.665 0 4.822 2.16 4.822 4.821s-2.157 4.818-4.822 4.818c-2.654 0-4.815-2.157-4.815-4.818zm2.663 13.668l-1.858-1.924-2.12.743 1.923-5.189 1.196-.554.944-.381 1.49 1.534-1.575 5.771zm6.168-1.357l-1.621 1.533-1.793-6.034 1.224-1.27 2.405.757 2.361 5.278-2.576-.264z"></path>
  </symbol>
</svg>