<svg width="0" height="0" class="hidden">
  <symbol xmlns="http://www.w3.org/2000/svg" viewBox="0 0 508.044 508.044" id="quotes">
    <path d="M.108 352.536c0 66.794 54.144 120.938 120.937 120.938 66.794 0 120.938-54.144 120.938-120.938s-54.144-120.937-120.938-120.937c-13.727 0-26.867 2.393-39.168 6.61C109.093 82.118 230.814-18.543 117.979 64.303-7.138 156.17-.026 348.84.114 352.371c0 .055-.006.104-.006.165zm266.061 0c0 66.794 54.144 120.938 120.938 120.938s120.938-54.144 120.938-120.938S453.9 231.599 387.106 231.599c-13.728 0-26.867 2.393-39.168 6.61C375.154 82.118 496.875-18.543 384.04 64.303 258.923 156.17 266.034 348.84 266.175 352.371c0 .055-.006.104-.006.165z"></path>
  </symbol>
  <symbol xmlns="http://www.w3.org/2000/svg" viewBox="0 0 24 24" id="menu">
    <path d="M21.5 24h-19A2.503 2.503 0 010 21.5v-19C0 1.122 1.121 0 2.5 0h19C22.879 0 24 1.122 24 2.5v19c0 1.378-1.121 2.5-2.5 2.5zM2.5 1C1.673 1 1 1.673 1 2.5v19c0 .827.673 1.5 1.5 1.5h19c.827 0 1.5-.673 1.5-1.5v-19c0-.827-.673-1.5-1.5-1.5z"></path>
    <path d="M16.5 8h-9a.5.5 0 010-1h9a.5.5 0 010 1zm0 4.5h-9a.5.5 0 010-1h9a.5.5 0 010 1zm0 4.5h-9a.5.5 0 010-1h9a.5.5 0 010 1z"></path>
  </symbol>
  <symbol xmlns="http://www.w3.org/2000/svg" viewBox="0 0 512 512" id="snap">
    <path d="M460.646 10H43.938C25.224 10 10 25.521 10 44.6v420.122c0 19.078 15.224 34.6 33.89 34.6 3.139.025 315.346 2.492 438.5 2.679h.03a19.282 19.282 0 0013.827-5.813A19.917 19.917 0 00502 481.77l-7.421-437.793C494.249 25.242 479.026 10 460.646 10zM43.938 22h416.708c11.879 0 21.719 9.954 21.935 22.184l6.511 384.244-96.777-99.462a33.563 33.563 0 00-54.35-3.721l-45.03 53.805a21.4 21.4 0 01-18.452 7.764 21.636 21.636 0 01-17.013-10.959l-81.253-140.576a33.583 33.583 0 00-56.1-3.578L22 345.014V44.6C22 32.138 31.841 22 43.938 22zm443.767 465.764a7.377 7.377 0 01-5.282 2.236h-.011c-123.12-.187-435.288-2.654-438.474-2.679-12.1 0-21.938-10.138-21.938-22.6V363.346L129.321 239.4l.271-.337a21.585 21.585 0 0136.236 2.221L247.08 381.86a33.576 33.576 0 0055.057 4.892l45.03-53.805a21.57 21.57 0 0135.25 2.83l.356.591L489.388 445.94l.612 36.028a8.007 8.007 0 01-2.295 5.796z"></path>
    <path d="M284.988 218.5c29.7 0 53.864-24.671 53.864-54.995s-24.164-54.995-53.864-54.995-53.863 24.671-53.863 54.995 24.163 54.995 53.863 54.995zm0-97.99c23.084 0 41.864 19.287 41.864 42.995s-18.78 43-41.864 43-41.863-19.288-41.863-42.995 18.775-42.996 41.863-42.996z"></path>
  </symbol>
  <symbol xmlns="http://www.w3.org/2000/svg" viewBox="0 0 512 512" id="wordpress">
    <path d="M41.073 152.466a10.2 10.2 0 00-18.895-.657C7.468 184.791.009 219.844.009 255.99c0 48.964 13.875 96.559 40.124 137.639 25.548 39.983 61.564 72.053 104.158 92.743a10.194 10.194 0 0011.29-1.604 10.2 10.2 0 002.747-11.068L41.073 152.466zM20.408 255.99c0-24.264 3.652-47.994 10.883-70.837l98.5 269.854C61.706 412.039 20.408 337.973 20.408 255.99zm324.968 224.775l-75.473-206.771a10.2 10.2 0 00-9.58-6.702h-.096a10.203 10.203 0 00-9.55 6.88l-73.753 214.293a10.195 10.195 0 006.766 13.104A256.135 256.135 0 00256.001 512c29.053 0 57.656-4.883 85.015-14.514a10.204 10.204 0 006.226-6.212 10.194 10.194 0 00-.922-8.747c-.423-.691-.726-1.255-.944-1.762zm-89.375 10.837a235.616 235.616 0 01-56.238-6.818l60.841-176.773 63.36 173.59c-22.027 6.64-44.838 10.001-67.963 10.001z"></path>
    <path d="M373.292 403.888c4.314 0 8.167-2.717 9.612-6.788l27.138-76.438c13.018-33.396 19.346-60.555 19.346-83.022 0-33.87-10.023-51.413-18.869-66.891a10.448 10.448 0 00-.167-.283c-.982-1.597-1.959-3.175-2.926-4.737-10.569-17.065-19.698-31.803-19.698-47.571 0-16.074 11.879-33.424 31.069-33.424.317 0 .804.041 1.321.085.404.034.805.067 1.209.093 4.329.281 8.341-2.2 10.038-6.179a10.2 10.2 0 00-2.492-11.52C381.573 23.87 320.18 0 256.001 0 169.666 0 89.708 43.127 42.115 115.365a10.199 10.199 0 008.179 15.805c6.281.208 11.719.314 16.16.314 23.686 0 58.376-2.55 65.182-3.068 1.089 1.962 1.193 6.64.137 8.39-2.685.3-14.319 1.553-26.893 2.209a10.196 10.196 0 00-9.137 13.433l80.48 239.565a10.198 10.198 0 009.668 6.951h.011a10.2 10.2 0 009.665-6.973l53.793-161.323a10.2 10.2 0 00-.122-6.8l-29.269-78.243a10.2 10.2 0 00-8.959-6.608c-11.584-.675-22.772-1.988-24.791-2.231-.919-1.946-.707-6.437.377-8.368 7.002.524 42.099 3.064 64.336 3.064 23.69 0 58.382-2.55 65.184-3.068 1.09 1.961 1.196 6.641.139 8.389-2.677.3-14.328 1.554-26.896 2.211a10.2 10.2 0 00-9.123 13.478l83.404 244.49a10.2 10.2 0 009.59 6.906h.062zM303.83 158.48c8.698-.708 14.988-1.437 15.375-1.483 11.726-1.386 19.321-12.743 18.061-27.005-1.206-13.633-10.034-22.696-21.423-22.014l-.198.013c-.395.031-39.714 3.092-64.716 3.092-23.477 0-63.551-3.063-63.953-3.093a5.5 5.5 0 00-.184-.012c-11.588-.695-20.652 9.083-21.489 23.228-.836 14.126 6.861 24.914 18.351 25.817 1.624.197 9.756 1.164 19.509 1.907l25.701 68.706-43.012 128.993-66.564-198.143c8.736-.709 15.053-1.442 15.444-1.488 11.724-1.386 19.316-12.747 18.055-27.012-1.207-13.629-10.032-22.697-21.419-22.007l-.198.013c-.374.031-35.884 2.795-60.879 3.071 44.547-57.103 112.646-90.666 185.71-90.666 51.924 0 101.868 16.978 142.757 48.187-18.452 8.187-31.428 27.326-31.428 49.574 0 21.573 11.053 39.419 22.755 58.312.927 1.497 1.864 3.01 2.806 4.541 8.29 14.509 16.097 28.269 16.097 56.629 0 19.642-6.058 45.128-18.008 75.755-.038.098-.074.196-.109.295l-17.388 48.972L303.83 158.48z"></path>
    <path d="M480.631 133.175a10.205 10.205 0 00-12.133-4.786 10.202 10.202 0 00-6.917 11.059c1.038 7.665 1.566 15.707 1.566 23.901 0 26.824-5.711 53.594-17.971 84.247-.06.15-.116.302-.169.454l-75.07 217.056a10.201 10.201 0 009.643 13.532 10.17 10.17 0 005.132-1.388c38.017-22.163 69.889-53.921 92.171-91.842 22.969-39.088 35.109-83.839 35.109-129.417-.001-42.904-10.845-85.374-31.361-122.816zm-81.473 309.854l65.051-188.086c9.331-23.375 15.137-44.781 17.736-65.726a236.37 236.37 0 019.65 66.774c0 73.498-34.797 142.771-92.437 187.038zm-136.872-73.295c-5.342-1.782-11.119 1.108-12.901 6.451l-1.36 4.079c-1.781 5.343 1.108 11.119 6.451 12.901 1.07.357 2.157.526 3.226.526 4.27 0 8.25-2.703 9.675-6.977l1.36-4.079c1.781-5.343-1.108-11.119-6.451-12.901zm-12.579 37.738c-5.344-1.786-11.119 1.108-12.901 6.45l-16.999 50.996c-1.781 5.343 1.108 11.119 6.451 12.9a10.15 10.15 0 003.226.527c4.27 0 8.25-2.703 9.675-6.977l16.998-50.996c1.782-5.343-1.107-11.119-6.45-12.9z"></path>
  </symbol>
  <symbol xmlns="http://www.w3.org/2000/svg" viewBox="0 0 512 512" id="growth">
    <path d="M504.5 480.837h-38.97V240.49c0-4.142-3.357-7.5-7.5-7.5s-7.5 3.358-7.5 7.5v240.347h-49.648l-.002-318.357h49.65v43.01c0 4.142 3.357 7.5 7.5 7.5s7.5-3.358 7.5-7.5v-50.51a7.5 7.5 0 00-7.5-7.5h-64.65a7.5 7.5 0 00-7.5 7.5v43.012h-57.148a7.5 7.5 0 00-7.5 7.5V248.5h-57.15a7.5 7.5 0 00-7.5 7.5v43.008h-57.15a7.5 7.5 0 00-7.5 7.5v43.008h-57.15a7.5 7.5 0 00-7.5 7.5v38.964H70.13a7.5 7.5 0 00-7.5 7.5v20.89c0 4.142 3.357 7.5 7.5 7.5s7.5-3.358 7.5-7.5v-13.39h49.65v69.857H77.63V459.37c0-4.142-3.357-7.5-7.5-7.5s-7.5 3.358-7.5 7.5v21.467H31.163V7.5c0-4.142-3.357-7.5-7.5-7.5s-7.5 3.358-7.5 7.5v38.967H7.5c-4.143 0-7.5 3.358-7.5 7.5s3.357 7.5 7.5 7.5h8.663v49.65H7.5c-4.143 0-7.5 3.358-7.5 7.5s3.357 7.5 7.5 7.5h8.663v49.65H7.5c-4.143 0-7.5 3.358-7.5 7.5s3.357 7.5 7.5 7.5h8.663v49.65H7.5c-4.143 0-7.5 3.358-7.5 7.5s3.357 7.5 7.5 7.5h8.663v49.651H7.5c-4.143 0-7.5 3.358-7.5 7.5s3.357 7.5 7.5 7.5h8.663v49.65H7.5c-4.143 0-7.5 3.358-7.5 7.5s3.357 7.5 7.5 7.5h8.663v49.65H7.5c-4.143 0-7.5 3.358-7.5 7.5s3.357 7.5 7.5 7.5h8.663v38.967a7.5 7.5 0 007.5 7.5H62.63v8.663c0 4.142 3.357 7.5 7.5 7.5s7.5-3.358 7.5-7.5v-8.66h49.65v8.66c0 4.142 3.357 7.5 7.5 7.5s7.5-3.358 7.5-7.5v-8.663h49.65v8.663c0 4.142 3.357 7.5 7.5 7.5s7.5-3.358 7.5-7.5v-8.663h49.65v8.663c0 4.142 3.357 7.5 7.5 7.5s7.5-3.358 7.5-7.5v-8.663h49.65v8.663c0 4.142 3.357 7.5 7.5 7.5s7.5-3.358 7.5-7.5v-8.663h49.65v8.663c0 4.142 3.357 7.5 7.5 7.5s7.5-3.358 7.5-7.5v-8.66h49.65v8.66c0 4.142 3.357 7.5 7.5 7.5s7.5-3.358 7.5-7.5v-8.663h38.97a7.5 7.5 0 100-14.998zM142.28 364.516h49.65v116.321h-49.65zm64.651-50.508h49.65v166.829h-49.65zm64.65-50.508h49.65v217.337h-49.65zm64.65-50.508h49.648v267.846h-49.648z"></path>
    <path d="M86.1 338.44c6.323 0 12.267-2.46 16.734-6.927l112.91-112.91a7.5 7.5 0 00-10.607-10.606L92.228 320.906a8.61 8.61 0 01-6.128 2.534c-2.311 0-4.482-.9-6.116-2.533a8.614 8.614 0 01-2.543-6.13c0-2.311.901-4.484 2.543-6.123l263.521-263.52a7.499 7.499 0 00-5.304-12.803h-23.61c-4.775 0-8.66-3.889-8.66-8.67 0-4.775 3.885-8.66 8.66-8.66h62.63c4.775 0 8.66 3.885 8.66 8.66v62.63c0 4.781-3.885 8.67-8.66 8.67s-8.66-3.889-8.66-8.67V62.68a7.499 7.499 0 00-12.804-5.303l-125.88 125.88a7.5 7.5 0 0010.607 10.606L353.56 80.787v5.503c0 13.052 10.614 23.67 23.66 23.67s23.66-10.618 23.66-23.67V23.66C400.88 10.614 390.266 0 377.22 0h-62.63c-13.046 0-23.66 10.614-23.66 23.66 0 13.052 10.614 23.67 23.66 23.67h5.504L69.38 298.043c-4.475 4.469-6.939 10.412-6.939 16.733 0 6.32 2.463 12.264 6.937 16.737A23.491 23.491 0 0086.1 338.44z"></path>
  </symbol>
  <symbol xmlns="http://www.w3.org/2000/svg" viewBox="0 0 512 512" id="easy">
    <path d="M184 304H72a8 8 0 00-8 8v96a8 8 0 008 8h112a8 8 0 008-8v-96a8 8 0 00-8-8zm-8 96H80v-80h96z"></path>
    <path d="M96 336h32v16H96zm32 32h32v16h-32z"></path>
    <path d="M380 64H136V24a8 8 0 00-12.878-6.34l-104 80a8 8 0 000 12.68l104 80A8 8 0 00136 184v-40h216a64.072 64.072 0 0164 64v144a63.897 63.897 0 01-48 61.993V232a8 8 0 00-8-8H24a8 8 0 00-8 8v256a8 8 0 008 8h356a116.131 116.131 0 00116-116V180A116.131 116.131 0 00380 64zm-28 176v192H240V240zm-208 0v32h-32v-32zm-112 0h64v40a8 8 0 008 8h48a8 8 0 008-8v-40h64v192H32zm448 140a100.113 100.113 0 01-100 100H32v-32h328a8 8 0 008-8v-9.605A79.864 79.864 0 00432 352V208a80.09 80.09 0 00-80-80H128a8 8 0 00-8 8v31.753L37.121 104 120 40.247V72a8 8 0 008 8h252a100.113 100.113 0 01100 100z"></path>
    <path d="M320 400h16v16h-16zm-32 0h16v16h-16zm-32 0h16v16h-16z"></path>
  </symbol>
  <symbol xmlns="http://www.w3.org/2000/svg" viewBox="0 0 501.656 501.656" id="clock">
    <path d="M342.512 328h-200a8 8 0 00-5.656 2.344l-96 96 11.312 11.312L145.824 344h187.888c-1.664 9.496-6.888 24-23.2 24h-88v16h88c31.64 0 40-31.4 40-48a8 8 0 00-8-8z"></path>
    <path d="M444.168 274.344a8 8 0 00-11.312 0l-72 72 11.312 11.312 65.712-65.712c10.828 14.37 8.629 34.68-5.024 46.4L339.2 432H174.512a8 8 0 00-5.656 2.344l-56 56 11.312 11.312L177.824 448h164.688a8 8 0 005.656-2.344l96-96c29.792-29.792 13.024-62.288 0-75.312zM262.512 0c-83.947 0-152 68.053-152 152s68.053 152 152 152c83.909-.093 151.907-68.091 152-152 0-83.947-68.053-152-152-152zm0 288c-75.111 0-136-60.889-136-136s60.89-136 136-136c75.076.084 135.916 60.924 136 136 0 75.111-60.889 136-136 136z"></path>
    <path d="M262.512 40c-61.856 0-112 50.144-112 112s50.145 112 112 112c61.828-.066 111.934-50.172 112-112 0-61.856-50.144-112-112-112zm8 207.666V224h-16v23.666c-46.637-3.848-83.817-41.028-87.666-87.666h23.666v-16h-23.666c3.849-46.637 41.029-83.817 87.666-87.666V80h16V56.343c46.612 3.893 83.764 41.045 87.657 87.657h-23.657v16h23.666c-3.848 46.637-41.028 83.817-87.666 87.666z"></path>
    <path d="M284.18 162.33a23.909 23.909 0 002.333-10.33c0-10.449-6.68-19.334-16-22.629V96h-16v33.371c-9.32 3.295-16 12.18-16 22.629-.001 13.255 10.745 24 23.999 24 3.711 0 7.225-.843 10.362-2.347l23.977 23.977 11.314-11.314-23.985-23.986zM262.512 160a8 8 0 110-16 8 8 0 010 16z"></path>
  </symbol>
  <symbol xmlns="http://www.w3.org/2000/svg" viewBox="0 0 64 64" id="computer">
    <path d="M13.293 14.293l-3 3a1 1 0 000 1.414l3 3 1.414-1.414L12.414 18l2.293-2.293zm2.763 7.359l2.999-7.998 1.872.702-2.999 7.998zm7.651.055l3-3a1 1 0 000-1.414l-3-3-1.414 1.414L24.586 18l-2.293 2.293zM10 26h4v2h-4zm6 0h10v2H16zm-4 4h4v2h-4zm6 0h10v2H18zm12 0h2v2h-2zm-18 4h4v2h-4zm6 0h10v2H18zm12 0h2v2h-2zm31.142-20.99l-2.682-.383a10.86 10.86 0 00-.679-1.639l1.625-2.166a1 1 0 00-.093-1.307l-2.828-2.828a1 1 0 00-1.306-.093l-2.167 1.624a10.9 10.9 0 00-1.639-.678l-.383-2.682A1 1 0 0050 2h-4a1 1 0 00-.99.858l-.383 2.682a10.855 10.855 0 00-1.639.678l-2.167-1.624a1 1 0 00-1.306.093l-2.828 2.828a1 1 0 00-.093 1.307l1.625 2.166a10.86 10.86 0 00-.679 1.639l-2.682.383A1 1 0 0034 14v4a1 1 0 00.858.99l2.682.383a10.86 10.86 0 00.679 1.639l-1.625 2.166a1 1 0 00.093 1.307l2.828 2.828a1 1 0 001.306.093l2.167-1.624a10.855 10.855 0 001.639.678l.383 2.682A1 1 0 0046 30h4a1 1 0 00.99-.858l.383-2.682a10.9 10.9 0 001.639-.678l2.167 1.624a1 1 0 001.306-.093l2.828-2.828a1 1 0 00.093-1.307l-1.625-2.166a10.86 10.86 0 00.679-1.639l2.682-.383A1 1 0 0062 18v-4a1 1 0 00-.858-.99zM60 17.133l-2.463.352a1 1 0 00-.827.742 8.923 8.923 0 01-.977 2.357 1 1 0 00.061 1.111l1.492 1.99-1.6 1.6-1.991-1.492a1 1 0 00-1.11-.06 8.859 8.859 0 01-2.356.975 1 1 0 00-.744.828L49.133 28h-2.266l-.351-2.463a1 1 0 00-.744-.828 8.859 8.859 0 01-2.356-.975 1 1 0 00-1.11.06l-1.991 1.492-1.6-1.6 1.492-1.99a1 1 0 00.061-1.111 8.923 8.923 0 01-.977-2.357 1 1 0 00-.827-.742L36 17.133v-2.266l2.463-.352a1 1 0 00.827-.742 8.923 8.923 0 01.977-2.357 1 1 0 00-.061-1.111l-1.492-1.99 1.6-1.6 1.991 1.492a1 1 0 001.11.06 8.859 8.859 0 012.356-.975 1 1 0 00.744-.828L46.867 4h2.266l.351 2.463a1 1 0 00.744.828 8.859 8.859 0 012.356.975 1 1 0 001.11-.06l1.991-1.492 1.6 1.6-1.492 1.99a1 1 0 00-.061 1.111 8.923 8.923 0 01.977 2.357 1 1 0 00.827.742l2.464.353z"></path>
    <path d="M48 10a6 6 0 106 6 6.006 6.006 0 00-6-6zm0 10a4 4 0 114-4 4 4 0 01-4 4z"></path>
    <path d="M52 40H4V15a3 3 0 013-3h28v-2H7a5.006 5.006 0 00-5 5v30a5.006 5.006 0 005 5h12.867l-.75 6H17a2 2 0 00-2 2v2a2 2 0 002 2h22a2 2 0 002-2v-2a2 2 0 00-2-2h-2.117l-.75-6H49a5.006 5.006 0 005-5V29h-2zM39 60H17v-2h22zm-4.133-4H21.133l.75-6h12.234zM49 48H7a3 3 0 01-3-3v-3h48v3a3 3 0 01-3 3z"></path>
    <path d="M46 44h2v2h-2z"></path>
  </symbol>
  <symbol xmlns="http://www.w3.org/2000/svg" viewBox="0 0 50 2" id="line">
    <path fill="#63c3ef" d="M0 0h50v2H0z"></path>
  </symbol>
  <symbol xmlns="http://www.w3.org/2000/svg" viewBox="0 0 16 11" id="tick">
    <path d="M2 4l4 4 8-8" fill="none" stroke="#2dd5a7" stroke-width="2"></path>
  </symbol>
  <symbol xmlns="http://www.w3.org/2000/svg" viewBox="0 0 485.656 485.656" id="settings">
    <path d="M334.512 312h-200a8 8 0 00-5.656 2.344l-96 96 11.312 11.312L137.824 328h187.888c-1.664 9.496-6.888 24-23.2 24h-88v16h88c31.64 0 40-31.4 40-48a8 8 0 00-8-8z"></path>
    <path d="M436.168 258.344a8 8 0 00-11.312 0l-72 72 11.312 11.312 65.712-65.712c10.828 14.37 8.629 34.68-5.024 46.4L331.2 416H166.512a8 8 0 00-5.656 2.344l-56 56 11.312 11.312L169.824 432h164.688a8 8 0 005.656-2.344l96-96c29.792-29.792 13.024-62.288 0-75.312zM390.512 112H361.76a111.297 111.297 0 00-8.792-21.192l20.344-20.344a8 8 0 000-11.312L339.36 25.208a8 8 0 00-11.312 0l-20.344 20.344a110.95 110.95 0 00-21.192-8.8V8a8 8 0 00-8-8h-48a8 8 0 00-8 8v28.752a110.95 110.95 0 00-21.192 8.8l-20.344-20.344a8 8 0 00-11.312 0l-33.952 33.944a8 8 0 000 11.312l20.352 20.344a111.392 111.392 0 00-8.8 21.192h-28.752a8 8 0 00-8 8v48a8 8 0 008 8h28.752a111.297 111.297 0 008.792 21.192l-20.344 20.344a8 8 0 000 11.312l33.952 33.952a8.232 8.232 0 0011.312 0l20.344-20.352a111.392 111.392 0 0021.192 8.8V280a8 8 0 008 8h48a8 8 0 008-8v-28.752a111.454 111.454 0 0021.192-8.792l20.344 20.344a8 8 0 0011.312 0l33.944-33.952a8 8 0 000-11.312l-20.344-20.344a111.392 111.392 0 008.8-21.192h28.752a8 8 0 008-8v-48a8 8 0 00-8-8zm-7.999 48h-26.888a8 8 0 00-7.784 6.16 95.729 95.729 0 01-11.68 28.144 8.001 8.001 0 001.152 9.864l19.032 19.024-22.64 22.64-19.024-19.04a8.001 8.001 0 00-9.864-1.152 95.436 95.436 0 01-28.144 11.688 8 8 0 00-6.16 7.784V272h-32v-26.88a8 8 0 00-6.16-7.784 95.436 95.436 0 01-28.144-11.688 8.001 8.001 0 00-9.864 1.152l-19.024 19.04-22.64-22.64 19.032-19.04a8.001 8.001 0 001.152-9.864 95.74 95.74 0 01-11.68-28.144 8 8 0 00-7.784-6.16h-26.888v-32H153.4a8 8 0 007.784-6.16 95.74 95.74 0 0111.68-28.144 8.001 8.001 0 00-1.152-9.864L152.68 64.8l22.632-22.624 19.032 19.032a8.001 8.001 0 009.864 1.152 95.198 95.198 0 0128.144-11.68 8 8 0 006.16-7.784V16h32v26.896a8 8 0 006.168 7.784 95.198 95.198 0 0128.144 11.68 8.001 8.001 0 009.864-1.152l19.024-19.032L356.345 64.8l-19.032 19.032a8.001 8.001 0 00-1.152 9.864 95.74 95.74 0 0111.68 28.144 8 8 0 007.784 6.16h26.888v32z"></path>
    <path d="M254.512 96c-26.51 0-48 21.49-48 48s21.491 48 48 48c26.499-.026 47.974-21.501 48-48 0-26.51-21.49-48-48-48zm0 80c-17.673 0-32-14.327-32-32 0-17.673 14.327-32 32-32 17.673 0 32 14.327 32 32 0 17.673-14.327 32-32 32z"></path>
  </symbol>
  <symbol xmlns="http://www.w3.org/2000/svg" viewBox="0 0 51 51" id="chevron">
    <circle cx="25.5" cy="25.5" r="25.5" fill="#393939"></circle>
    <rect x="24.4" y="27.9" width="1.6" height="15.24" rx=".8" transform="rotate(-39 11.114 37.674)"></rect>
    <rect x="33.3" y="27.9" width="1.6" height="15.24" rx=".8" transform="rotate(37.3 44.444 24.605)"></rect>
  </symbol>
  <symbol xmlns="http://www.w3.org/2000/svg" viewBox="0 0 21.8 23.8" id="search">
    <path d="M.1 8.6a8.7 8.7 0 00.8 4.8 1 1 0 001.2.4.8.8 0 00.4-1.2 8.3 8.3 0 01-.7-3.8A7.62 7.62 0 0117 9.9a7.7 7.7 0 01-11.8 5.8.8.8 0 00-1.2.2.9.9 0 00.2 1.3 10 10 0 004.5 1.5 9.3 9.3 0 006.1-1.7l5.5 6.4a.9.9 0 00.6.3.7.7 0 00.7-.2.9.9 0 00.1-1.2l-5.6-6.4a8.9 8.9 0 002.6-5.8A9.33 9.33 0 10.1 8.6z" fill="#ecf6fc"></path>
  </symbol>
  <symbol viewBox="0 0 16 20" id="copy" xmlns="http://www.w3.org/2000/svg">
<path d="M10.8686 3.49463H1.57955C0.707932 3.49463 0 4.20256 0 5.07418V18.4021C0 19.2737 0.707932 19.9817 1.57955 19.9817H10.8686C11.7402 19.9817 12.4481 19.2737 12.4481 18.4021V5.07418C12.4441 4.20256 11.7361 3.49463 10.8686 3.49463ZM11.3392 18.398C11.3392 18.6599 11.1264 18.8727 10.8645 18.8727H1.57546C1.31356 18.8727 1.10077 18.6599 1.10077 18.398V5.07418C1.10077 4.81228 1.31356 4.59949 1.57546 4.59949H10.8645C11.1264 4.59949 11.3392 4.81228 11.3392 5.07418V18.398Z" fill="white"/>
<path d="M14.4204 0H5.13131C4.25969 0 3.55176 0.707932 3.55176 1.57955C3.55176 1.88645 3.79728 2.13198 4.10419 2.13198C4.4111 2.13198 4.65662 1.88645 4.65662 1.57955C4.65662 1.31765 4.86941 1.10486 5.13131 1.10486H14.4204C14.6822 1.10486 14.895 1.31765 14.895 1.57955V14.9075C14.895 15.1694 14.6822 15.3822 14.4204 15.3822C14.1134 15.3822 13.8679 15.6277 13.8679 15.9346C13.8679 16.2415 14.1134 16.487 14.4204 16.487C15.292 16.487 15.9999 15.7791 15.9999 14.9075V1.57955C15.9999 0.707932 15.292 0 14.4204 0Z" fill="white"/>
</symbol>
<symbol id="logo" xmlns="http://www.w3.org/2000/svg" width="1024pt" height="1024pt" viewBox="0 0 1024.000000 1024.000000"><path d="M306 512v246.1l135.3-.4c119.5-.3 136.5-.5 146.2-2 16.6-2.5 26-4.6 37.2-8.2 21.9-7.2 37.8-16.8 52.9-31.9 23.6-23.5 36.1-52.6 39.5-91.9 3.9-44.6-11.4-86.4-40.5-110.7-8.8-7.3-22.2-15.4-31.2-18.7-4.1-1.6-7.4-3.4-7.4-4 0-.7 2.8-2.7 6.3-4.4 19.7-10 34.7-25.5 42.9-44.4 6.2-14.1 9.5-36 8.4-56-1.6-30.6-13-57.4-33.5-78.8-19.6-20.4-45.4-32.4-82.7-38.3-9.8-1.6-24.2-1.8-142.1-2.1l-131.3-.4v246.1zm228.1-137.6c14.8 2.7 24.6 9.6 30.3 21.6 3 6.2 3.1 7.1 3.1 19 0 10.7-.4 13.3-2.3 18.2-2.8 7.1-10.3 15.4-16.9 19.1-10.2 5.5-12.7 5.7-62.5 5.7h-45.8v-85h43.3c31.7.1 45.2.4 50.8 1.4zm16.4 175.1c24.9 6.5 41.4 31.2 37.5 56.1-3.4 21.5-21.2 39.3-42.5 42.4-3.9.5-28.8 1-56.2 1h-49.3v-101h52.3c43.7 0 53.2.3 58.2 1.5z"/></symbol>
<symbol id="uni" viewBox="0 0 70 80" fill="none" xmlns="http://www.w3.org/2000/svg">
<path d="M27.2324 18.1949C26.3659 18.0711 26.3247 18.0299 26.7373 17.9886C27.5212 17.8648 29.3365 18.0299 30.6155 18.3187C33.5861 19.0201 36.2679 20.8354 39.1148 24.0123L39.8574 24.8787L40.9301 24.7137C45.5098 23.9711 50.2133 24.5487 54.1328 26.3641C55.2055 26.8592 56.8971 27.8494 57.1034 28.0969C57.1859 28.1794 57.3097 28.7158 57.3922 29.2521C57.681 31.1913 57.5573 32.6353 56.9384 33.7493C56.6083 34.3682 56.6083 34.5332 56.8146 35.0696C56.9796 35.4822 57.4747 35.771 57.9286 35.771C58.9188 35.771 59.9502 34.2031 60.4453 32.0164L60.6516 31.15L61.023 31.5626C63.1271 33.9143 64.7775 37.1737 65.025 39.4842L65.1075 40.1031L64.7362 39.5667C64.1173 38.6178 63.5397 37.9989 62.7558 37.4626C61.353 36.5136 59.8677 36.2248 55.9482 36.0185C52.4 35.8122 50.3783 35.5234 48.3979 34.8633C45.0147 33.7493 43.2819 32.3053 39.2798 26.9829C37.5057 24.6312 36.3917 23.3522 35.2777 22.2795C32.8435 19.9277 30.4093 18.69 27.2324 18.1949Z" fill="#EC4079"/>
<path d="M57.9699 23.4348C58.0524 21.867 58.2587 20.8355 58.7125 19.8866C58.8776 19.5152 59.0426 19.1852 59.0838 19.1852C59.1251 19.1852 59.0426 19.474 58.9188 19.8041C58.5887 20.7117 58.5475 21.9907 58.7538 23.4348C59.0426 25.2914 59.1664 25.539 61.1468 27.5606C62.0544 28.5096 63.1272 29.7061 63.5397 30.2012L64.2411 31.1089L63.5397 30.4487C62.6733 29.6236 60.6929 28.0557 60.2391 27.8494C59.9503 27.6844 59.909 27.6844 59.7027 27.8907C59.5377 28.0557 59.4964 28.3033 59.4964 29.4998C59.4552 31.3564 59.2076 32.5116 58.5887 33.7081C58.2587 34.327 58.2174 34.2032 58.5062 33.5018C58.7125 32.9655 58.7538 32.7179 58.7538 30.9438C58.7538 27.3543 58.3412 26.4879 55.8244 25.0439C55.2056 24.6725 54.1328 24.1362 53.514 23.8474C52.8538 23.5586 52.3587 23.311 52.4 23.311C52.4825 23.2285 54.9167 23.9299 55.8657 24.3425C57.3097 24.9201 57.5573 24.9614 57.7223 24.9201C57.8461 24.7963 57.9286 24.4663 57.9699 23.4348Z" fill="#EC4079"/>
<path d="M28.924 29.5823C27.1912 27.1893 26.0772 23.476 26.3247 20.7117L26.4073 19.8453L26.8198 19.9278C27.5625 20.0516 28.8415 20.5467 29.4604 20.918C31.1107 21.9082 31.8534 23.2697 32.5548 26.6529C32.761 27.6431 33.0499 28.7983 33.1736 29.1697C33.3799 29.7885 34.1638 31.2326 34.824 32.1403C35.2778 32.8004 34.989 33.1305 33.9575 33.048C32.3897 32.8829 30.2855 31.4389 28.924 29.5823Z" fill="#EC4079"/>
<path d="M55.8657 47.5297C47.6966 44.229 44.8085 41.3822 44.8085 36.5549C44.8085 35.8536 44.8497 35.2759 44.8497 35.2759C44.891 35.2759 45.1798 35.5235 45.5511 35.8123C47.2015 37.1326 49.0581 37.7102 54.2154 38.4528C57.2272 38.9067 58.9601 39.2367 60.5279 39.7731C65.5202 41.4234 68.6146 44.8066 69.3572 49.3863C69.5635 50.7066 69.4397 53.2233 69.1097 54.5436C68.8208 55.5751 67.9957 57.4729 67.7894 57.5142C67.7481 57.5142 67.6656 57.3079 67.6656 56.9778C67.5831 55.245 66.7167 53.5947 65.2726 52.3157C63.5398 50.8303 61.3118 49.7164 55.8657 47.5297Z" fill="#EC4079"/>
<path d="M50.0895 48.8912C50.007 48.2723 49.8007 47.4884 49.6769 47.1583L49.4706 46.5394L49.842 46.9933C50.3783 47.6121 50.7909 48.3548 51.1622 49.3863C51.451 50.1702 51.451 50.4177 51.451 51.6967C51.451 52.9345 51.4098 53.2233 51.1622 53.9247C50.7496 55.0387 50.2545 55.8226 49.4294 56.689C47.9441 58.2155 46.0049 59.0407 43.2406 59.412C42.7455 59.4533 41.3427 59.5771 40.105 59.6596C37.0106 59.8246 34.9477 60.1547 33.0911 60.8148C32.8435 60.8973 32.596 60.9799 32.5547 60.9386C32.4722 60.8561 33.7512 60.1134 34.7827 59.6183C36.2267 58.9169 37.712 58.5456 40.9714 57.968C42.5805 57.7204 44.2308 57.3904 44.6434 57.2253C48.728 55.9463 50.7496 52.7694 50.0895 48.8912Z" fill="#EC4079"/>
<path d="M53.844 55.5338C52.7713 53.1821 52.5237 50.9541 53.1013 48.85C53.1839 48.6437 53.2664 48.4374 53.3489 48.4374C53.4314 48.4374 53.679 48.5612 53.9265 48.7262C54.4216 49.0563 55.4531 49.6339 58.0936 51.0779C61.4355 52.8933 63.3334 54.2961 64.6537 55.9051C65.8089 57.3079 66.5103 58.917 66.8404 60.8974C67.0467 62.0114 66.9229 64.6932 66.6341 65.8072C65.7264 69.3141 63.6635 72.1197 60.6516 73.7288C60.1978 73.9763 59.8265 74.1413 59.7852 74.1413C59.7439 74.1413 59.909 73.7288 60.1565 73.2337C61.1467 71.1295 61.2705 69.1078 60.5279 66.8386C60.074 65.4358 59.1251 63.7442 57.2272 60.8974C54.958 57.5967 54.4216 56.7303 53.844 55.5338Z" fill="#EC4079"/>
<path d="M23.1065 68.1589C26.1597 65.6008 29.9142 63.7855 33.3799 63.2078C34.8652 62.9603 37.3407 63.0428 38.7022 63.4141C40.8889 63.9918 42.8693 65.2295 43.9008 66.7561C44.891 68.2414 45.3448 69.5204 45.7986 72.3672C45.9637 73.4812 46.17 74.6364 46.2112 74.884C46.5413 76.3693 47.2014 77.5245 48.0266 78.1434C49.3056 79.0923 51.5336 79.1336 53.7202 78.3084C54.0916 78.1846 54.4216 78.0609 54.4216 78.1021C54.5042 78.1846 53.3902 78.9273 52.6475 79.2986C51.6161 79.835 50.7909 80 49.6769 80C47.6965 80 46.0049 78.9685 44.6434 76.9056C44.3546 76.493 43.777 75.2966 43.2819 74.1826C41.8378 70.8406 41.0952 69.8505 39.4036 68.7365C37.9183 67.7875 36.0204 67.5812 34.5764 68.2826C32.6785 69.1903 32.1834 71.6246 33.5036 73.1099C34.04 73.7287 35.0302 74.2238 35.8554 74.3476C37.3819 74.5539 38.7022 73.3574 38.7022 71.8309C38.7022 70.8407 38.3309 70.263 37.3407 69.8092C36.0204 69.2316 34.5764 69.8917 34.6176 71.1707C34.6176 71.7071 34.8652 72.0371 35.4015 72.2847C35.7316 72.4497 35.7316 72.4497 35.484 72.4085C34.2876 72.1609 33.9987 70.6756 34.9477 69.7267C36.1029 68.5714 38.5372 69.0665 39.3623 70.6756C39.6924 71.3358 39.7337 72.656 39.4449 73.4812C38.7435 75.2966 36.7631 76.2455 34.7414 75.7091C33.3799 75.3378 32.8023 74.9665 31.1519 73.2749C28.2638 70.3043 27.1499 69.7267 23.024 69.1078L22.2401 68.984L23.1065 68.1589Z" fill="#EC4079"/>
<path fill-rule="evenodd" clip-rule="evenodd" d="M1.40462 1.77411C11.0178 13.4502 25.8296 31.6039 26.5722 32.5941C27.1911 33.4193 26.9436 34.2032 25.9121 34.7808C25.3345 35.1109 24.138 35.4409 23.5604 35.4409C22.9002 35.4409 22.1163 35.1109 21.58 34.5745C21.2086 34.2032 19.5996 31.8515 15.9688 26.1991C13.2045 21.8669 10.8528 18.2775 10.8115 18.2362C10.6465 18.1537 10.6465 18.1537 15.68 27.148C18.8569 32.8004 19.8884 34.8221 19.8884 35.0696C19.8884 35.606 19.7233 35.8948 19.0632 36.6374C17.9492 37.8752 17.4541 39.278 17.0828 42.2073C16.6702 45.4667 15.5562 47.7772 12.3793 51.6967C10.5227 54.0072 10.2339 54.4198 9.78007 55.3687C9.20245 56.524 9.03742 57.1841 8.9549 58.6694C8.87239 60.2372 9.03742 61.2274 9.49126 62.7127C9.90384 64.033 10.3577 64.8994 11.4717 66.591C12.4206 68.0763 12.9982 69.1903 12.9982 69.6029C12.9982 69.9329 13.0807 69.9329 14.566 69.6029C18.1143 68.7777 21.0436 67.3749 22.6527 65.6421C23.6429 64.5694 23.8904 63.9917 23.8904 62.5064C23.8904 61.5575 23.8492 61.3512 23.6016 60.7736C23.189 59.8659 22.4051 59.1233 20.7135 57.968C18.4856 56.4415 17.5366 55.2037 17.2891 53.5534C17.0828 52.1506 17.3304 51.2016 18.5681 48.6024C19.8471 45.9206 20.1772 44.8066 20.3835 42.0835C20.5072 40.3507 20.7135 39.6493 21.2086 39.1129C21.745 38.5353 22.1988 38.329 23.4779 38.164C25.582 37.8752 26.9436 37.3388 28.0163 36.3074C28.9652 35.4409 29.3778 34.5745 29.4191 33.2955L29.4603 32.3466L28.924 31.769C26.9848 29.541 0.12561 0 0.00183519 0C-0.0394232 0 0.620711 0.783909 1.40462 1.77411ZM14.0709 60.4435C14.5248 59.6596 14.2772 58.6694 13.5346 58.1743C12.8332 57.7205 11.7605 57.9268 11.7605 58.5456C11.7605 58.7107 11.843 58.8757 12.0905 58.9582C12.4619 59.1645 12.5031 59.3708 12.2143 59.8246C11.9255 60.2785 11.9255 60.6911 12.2968 60.9799C12.8744 61.4337 13.6584 61.1862 14.0709 60.4435Z" fill="#EC4079"/>
<path fill-rule="evenodd" clip-rule="evenodd" d="M30.7806 38.7416C29.7904 39.0304 28.8414 40.1031 28.5526 41.1758C28.3876 41.836 28.4701 43.0325 28.7589 43.4038C29.2128 43.9814 29.6253 44.1464 30.7806 44.1464C33.0498 44.1464 34.9889 43.1562 35.1952 41.9598C35.4015 40.9696 34.5351 39.608 33.3386 38.9892C32.7197 38.6591 31.4407 38.5353 30.7806 38.7416ZM33.4211 40.8045C33.7512 40.3094 33.6274 39.7731 33.0085 39.4017C31.8945 38.7003 30.203 39.278 30.203 40.3507C30.203 40.887 31.0694 41.4647 31.8945 41.4647C32.4309 41.4647 33.1736 41.1346 33.4211 40.8045Z" fill="#EC4079"/>
</symbol>
<symbol id="one" data-name="Layer 1" xmlns="http://www.w3.org/2000/svg" viewBox="0 0 2.6 7.8"><path d="M328.43,360.38h0l-1.35.74-.21-.81,1.71-.91h.9v7.8h-1Z" transform="translate(-326.84 -359.4)"/></symbol>
<symbol id="two" data-name="Layer 1" xmlns="http://www.w3.org/2000/svg" viewBox="0 0 4.98 7.93"><path d="M208.34,197.87v-.65l.83-.8c2-1.9,2.89-2.9,2.9-4.08a1.39,1.39,0,0,0-1.54-1.52,2.66,2.66,0,0,0-1.66.66l-.33-.75a3.43,3.43,0,0,1,2.2-.79,2.2,2.2,0,0,1,2.39,2.27c0,1.44-1,2.6-2.69,4.19l-.62.57v0h3.5v.87Z" transform="translate(-208.34 -189.94)"/></symbol>
<symbol id="three" data-name="Layer 1" xmlns="http://www.w3.org/2000/svg" viewBox="0 0 4.87 8.06"><path d="M284.06,220.59a3.49,3.49,0,0,0,1.72.49c1.36,0,1.78-.87,1.77-1.51,0-1.09-1-1.56-2-1.56h-.59v-.79h.59c.77,0,1.74-.4,1.74-1.32,0-.63-.4-1.18-1.37-1.18a2.89,2.89,0,0,0-1.56.52l-.27-.77a3.71,3.71,0,0,1,2-.6c1.53,0,2.23.91,2.23,1.86a1.93,1.93,0,0,1-1.44,1.83v0a2,2,0,0,1,1.74,2c0,1.25-1,2.34-2.85,2.34a4,4,0,0,1-2-.53Z" transform="translate(-283.77 -213.87)"/></symbol>
</svg>